<svg xmlns="http://www.w3.org/2000/svg" width="1400" height="800" viewBox="0 0 1400 800"><defs><g id="intruder"><circle cx="0" cy="0" r="40" fill="#B8862B" stroke="#1F1D1A" stroke-width="3"/><circle cx="0" cy="0" r="8" fill="#1F1D1A" opacity="0.5"/><polygon points="36.0,9.0 62.0,0.0 36.0,-9.0" fill="#B8862B" stroke="#1F1D1A" stroke-width="2" stroke-linejoin="round"/><polygon points="23.8,28.4 50.2,36.4 34.4,13.9" fill="#B8862B" stroke="#1F1D1A" stroke-width="2" stroke-linejoin="round"/><polygon points="2.6,37.0 19.2,59.0 19.7,31.5" fill="#B8862B" stroke="#1F1D1A" stroke-width="2" stroke-linejoin="round"/><polygon points="-19.7,31.5 -19.2,59.0 -2.6,37.0" fill="#B8862B" stroke="#1F1D1A" stroke-width="2" stroke-linejoin="round"/><polygon points="-34.4,13.9 -50.2,36.4 -23.8,28.4" fill="#B8862B" stroke="#1F1D1A" stroke-width="2" stroke-linejoin="round"/><polygon points="-36.0,-9.0 -62.0,0.0 -36.0,9.0" fill="#B8862B" stroke="#1F1D1A" stroke-width="2" stroke-linejoin="round"/><polygon points="-23.8,-28.4 -50.2,-36.4 -34.4,-13.9" fill="#B8862B" stroke="#1F1D1A" stroke-width="2" stroke-linejoin="round"/><polygon points="-2.6,-37.0 -19.2,-59.0 -19.7,-31.5" fill="#B8862B" stroke="#1F1D1A" stroke-width="2" stroke-linejoin="round"/><polygon points="19.7,-31.5 19.2,-59.0 2.6,-37.0" fill="#B8862B" stroke="#1F1D1A" stroke-width="2" stroke-linejoin="round"/><polygon points="34.4,-13.9 50.2,-36.4 23.8,-28.4" fill="#B8862B" stroke="#1F1D1A" stroke-width="2" stroke-linejoin="round"/></g><g id="defender"><circle cx="0" cy="0" r="26" fill="#2F5D3A"/><circle cx="21.3" cy="5.7" r="12" fill="#2F5D3A"/><circle cx="-15.6" cy="15.6" r="12" fill="#2F5D3A"/><circle cx="-5.7" cy="-21.3" r="12" fill="#2F5D3A"/></g></defs><rect x="0" y="0" width="1400" height="800" fill="#FFFFFF"/><line x1="700" y1="145" x2="700" y2="650" stroke="#DDE5E0" stroke-width="3"/><text x="360" y="95" font-family="Figtree, Helvetica, Arial, sans-serif" font-size="46" font-weight="700" fill="#1F1D1A" text-anchor="middle">Normal response</text><text x="1040" y="95" font-family="Figtree, Helvetica, Arial, sans-serif" font-size="46" font-weight="700" fill="#1F1D1A" text-anchor="middle">Suppressed response</text><g><use href="#defender" x="288.8" y="248.9"/><use href="#defender" x="237.4" y="310.2"/><use href="#defender" x="158.6" y="296.3"/><use href="#defender" x="131.2" y="221.1"/><use href="#defender" x="182.6" y="159.8"/><use href="#defender" x="261.4" y="173.7"/><use href="#defender" x="568.8" y="278.9"/><use href="#defender" x="517.4" y="340.2"/><use href="#defender" x="438.6" y="326.3"/><use href="#defender" x="411.2" y="251.1"/><use href="#defender" x="462.6" y="189.8"/><use href="#defender" x="541.4" y="203.7"/><use href="#defender" x="428.8" y="508.9"/><use href="#defender" x="377.4" y="570.2"/><use href="#defender" x="298.6" y="556.3"/><use href="#defender" x="271.2" y="481.1"/><use href="#defender" x="322.6" y="419.8"/><use href="#defender" x="401.4" y="433.7"/><use href="#intruder" x="210.0" y="235.0"/><use href="#intruder" x="490.0" y="265.0"/><use href="#intruder" x="350.0" y="495.0"/></g><g><use href="#defender" x="978.1" y="308.9"/><use href="#defender" x="801.9" y="161.1"/><use href="#defender" x="1258.1" y="338.9"/><use href="#defender" x="1081.9" y="191.1"/><use href="#defender" x="1118.1" y="568.9"/><use href="#defender" x="941.9" y="421.1"/><use href="#intruder" x="890.0" y="235.0"/><use href="#intruder" x="1170.0" y="265.0"/><use href="#intruder" x="1030.0" y="495.0"/></g><line x1="60" y1="680" x2="1340" y2="680" stroke="#DDE5E0" stroke-width="2"/><rect x="380" y="700" width="640" height="80" rx="16" ry="16" fill="#FFFFFF" stroke="#DDE5E0" stroke-width="2"/><circle cx="420" cy="740" r="14" fill="#B8862B" stroke="#1F1D1A" stroke-width="2"/><text x="445" y="750" font-family="Figtree, Helvetica, Arial, sans-serif" font-size="34" font-weight="600" fill="#1F1D1A" text-anchor="start">Intruder</text><circle cx="680" cy="740" r="14" fill="#2F5D3A"/><text x="705" y="750" font-family="Figtree, Helvetica, Arial, sans-serif" font-size="34" font-weight="600" fill="#1F1D1A" text-anchor="start">Immune cells</text></svg>
